<!DOCTYPE svg PUBLIC "-//W3C//DTD SVG 1.1//EN" "http://www.w3.org/Graphics/SVG/1.1/DTD/svg11.dtd">
<!-- Uploaded to: SVG Repo, www.svgrepo.com, Transformed by: SVG Repo Mixer Tools -->
<svg fill="#011e79" version="1.1" id="Capa_1" xmlns="http://www.w3.org/2000/svg" xmlns:xlink="http://www.w3.org/1999/xlink" width="800px" height="800px" viewBox="0 0 468.307 468.307" xml:space="preserve">
<g id="SVGRepo_bgCarrier" stroke-width="0"/>
<g id="SVGRepo_tracerCarrier" stroke-linecap="round" stroke-linejoin="round"/>
<g id="SVGRepo_iconCarrier"> <g> <g> <path d="M285.234,147.251c13.106-0.241,24.336-2.122,35.13-8.446c13.973-8.186,24.562-22.147,40.381-46.692 c5.087-7.892,2.813-18.413-5.08-23.499c-7.891-5.086-18.412-2.813-23.498,5.08c-12.323,19.121-21.019,31.105-28.988,35.775 c-6.691,3.921-15.863,4.241-33.876,3.467l-10.278-4.734l-9.211-7.766l-14.021,13.945l13.403,89.608 c0.046,0.306-0.03,0.618-0.213,0.867l-13.883,19c-0.223,0.303-0.574,0.482-0.949,0.482s-0.729-0.179-0.948-0.482l-13.883-19 c-0.183-0.249-0.259-0.561-0.213-0.867l13.404-89.612l-14.016-13.941l-9.212,7.766l-10.281,4.734 c-18.013,0.775-27.181,0.453-33.872-3.467c-7.971-4.67-16.665-16.654-28.989-35.775c-5.086-7.892-15.608-10.166-23.498-5.08 c-7.893,5.086-10.167,15.607-5.08,23.499c15.819,24.545,26.408,38.506,40.381,46.692c10.794,6.325,22.021,8.205,35.13,8.446 l0.025,103.683c0,8.777,3.086,16.598,8.059,23.131l0.008,174.805c0,10.734,8.703,19.439,19.439,19.438 c10.735,0,19.439-8.705,19.438-19.439l-0.006-154.104c1.381,0.117,2.756,0.183,4.116,0.183c1.363,0,2.735-0.065,4.119-0.183 l-0.002,154.104c0,10.736,8.701,19.439,19.438,19.439c10.734,0,19.438-8.703,19.438-19.439l0.002-174.803 c4.973-6.533,8.059-14.354,8.059-23.131L285.234,147.251z"/> <path d="M234.153,99.787c23.604,0,41.222-21.994,41.623-58.876C276.031,15.316,263.843,0,234.153,0 c-29.692,0-41.88,15.316-41.624,40.911C192.929,77.793,210.545,99.787,234.153,99.787z"/> <g> <path d="M375.77,252.615l-16.039-7.383l-7.705-6.498l-12.162,12.094l5.559,37.168c0.021,0.132-0.013,0.267-0.092,0.373 l-5.997,8.209c-0.096,0.131-0.248,0.207-0.41,0.207c-0.161,0-0.313-0.076-0.408-0.207l-5.998-8.209 c-0.078-0.106-0.111-0.241-0.093-0.373l5.561-37.168l-12.162-12.096l-7.705,6.498l-16.039,7.385 c-2.373,0.975-4.571,2.062-5.893,5.025c0,0-17.434,41.508-7.978,41.508H389.64c9.456,0-7.979-41.508-7.979-41.508 C380.74,255.412,378.143,253.591,375.77,252.615z"/> <path d="M338.924,238.499c16.404,0,28.646-15.283,28.924-40.914c0.182-17.785-8.29-28.43-28.924-28.43 c-20.633,0-29.104,10.645-28.924,28.43C310.278,223.216,322.519,238.499,338.924,238.499z"/> <path d="M451.632,260.619c-1.048-2.535-3.242-3.735-5.432-4.633l-14.787-6.81l-7.104-5.991l-11.146,11.086l5.118,34.221 c0.02,0.125-0.012,0.25-0.086,0.351l-5.603,7.668c-0.09,0.122-0.23,0.194-0.384,0.194c-0.15,0-0.294-0.072-0.383-0.194 l-5.602-7.668c-0.074-0.101-0.104-0.226-0.086-0.351l5.123-34.254l-11.111-11.053l-7.104,5.991l-8.438,3.886 c2.175,1.516,4.175,3.531,5.067,5.641c0.163,0.392,4.05,9.668,7.415,19.998c3.141,9.637,4.44,15.934,4.737,20.186h57.156 C467.705,298.887,451.632,260.619,451.632,260.619z"/> <path d="M412.231,242.972c15.124,0,26.408-14.091,26.665-37.721c0.167-16.397-7.645-26.21-26.665-26.21 c-19.021,0-26.831,9.813-26.666,26.21C385.822,228.881,397.107,242.972,412.231,242.972z"/> <path d="M166.231,252.615l-16.039-7.383l-7.705-6.498l-12.162,12.096l5.56,37.167c0.02,0.132-0.014,0.267-0.092,0.374 l-5.998,8.207c-0.095,0.132-0.247,0.209-0.409,0.209s-0.314-0.077-0.41-0.209l-5.997-8.207c-0.079-0.107-0.111-0.242-0.092-0.374 l5.559-37.167l-12.162-12.096l-7.705,6.498l-16.039,7.385c-2.373,0.975-4.971,2.795-5.892,5.025c0,0-17.434,41.508-7.978,41.508 h101.431c9.456,0-7.977-41.508-7.977-41.508C170.802,254.678,168.604,253.591,166.231,252.615z"/> <path d="M129.384,238.499c16.405,0,28.646-15.283,28.924-40.914c0.18-17.785-8.291-28.43-28.924-28.43 s-29.104,10.645-28.923,28.43C100.739,223.216,112.98,238.499,129.384,238.499z"/> <path d="M83.698,253.064l-8.438-3.887l-7.104-5.99L57.045,254.24l5.123,34.254c0.019,0.123-0.012,0.25-0.086,0.35l-5.602,7.668 c-0.089,0.122-0.231,0.194-0.383,0.194c-0.152,0-0.294-0.072-0.383-0.194l-5.603-7.668c-0.074-0.1-0.104-0.227-0.086-0.35 l5.118-34.223l-11.145-11.084l-7.104,5.99l-14.787,6.809c-2.188,0.897-4.384,2.099-5.432,4.635c0,0-16.073,38.267-7.355,38.267 h57.156c0.297-4.252,1.598-10.549,4.738-20.187c3.365-10.328,7.251-19.605,7.415-19.996 C79.523,256.595,81.523,254.578,83.698,253.064z"/> <path d="M56.077,242.972c15.124,0,26.409-14.091,26.666-37.721c0.165-16.397-7.645-26.21-26.666-26.21 s-26.832,9.813-26.665,26.21C29.669,228.881,40.953,242.972,56.077,242.972z"/> </g> </g> </g> </g>
</svg>