<!DOCTYPE svg PUBLIC "-//W3C//DTD SVG 1.1//EN" "http://www.w3.org/Graphics/SVG/1.1/DTD/svg11.dtd">
<!-- Uploaded to: SVG Repo, www.svgrepo.com, Transformed by: SVG Repo Mixer Tools -->
<svg fill="#011e79" version="1.1" id="Capa_1" xmlns="http://www.w3.org/2000/svg" xmlns:xlink="http://www.w3.org/1999/xlink" width="800px" height="800px" viewBox="0 0 124.176 124.176" xml:space="preserve">
<g id="SVGRepo_bgCarrier" stroke-width="0"/>
<g id="SVGRepo_tracerCarrier" stroke-linecap="round" stroke-linejoin="round"/>
<g id="SVGRepo_iconCarrier"> <g> <g> <g> <g> <path d="M104.097,25.769c-0.146-0.09-0.301-0.148-0.454-0.219c-1.245-0.816-2.638-1.417-4.054-1.765l-2.828,2.845l-2.739-2.876 c-0.011,0.002-0.021,0.002-0.028,0.006c-1.359,0.324-2.693,0.888-3.898,1.646c-0.301,0.092-0.598,0.211-0.885,0.372 c-1.756,0.987-3.428,1.18-5.256,0.61c-6.06-1.888-11.703-11.133-13.365-14.531c-0.442-0.913-1.166-1.586-2.01-2.005L67.372,9.45 c-0.877-0.151-1.807-0.049-2.668,0.37c-2.188,1.063-3.101,3.698-2.038,5.886c0.257,0.531,1.219,2.447,2.778,4.889l1.039,1.57 c3.252,4.732,8.389,10.611,14.829,12.627c1.274,0.399,2.56,0.621,3.837,0.688v23.214c0,1.199,0.236,2.315,0.648,3.341 c-0.028,0.219-0.067,0.436-0.067,0.664l0.003,42.183c0,2.876,2.332,5.206,5.207,5.206c2.875-0.001,5.206-2.331,5.206-5.206 L96.144,68.68c0.207,0.01,0.412,0.025,0.619,0.025c0.041,0,0.082-0.004,0.123-0.006l-0.002,36.183 c0,2.875,2.332,5.206,5.207,5.206l0,0c2.875,0,5.207-2.331,5.207-5.206V63.499c0.274,0.262,0.572,0.502,0.92,0.692 c0.668,0.362,1.391,0.535,2.103,0.535c1.562,0,3.074-0.832,3.873-2.301C126.62,39.584,109.669,29.187,104.097,25.769z M96.79,49.088h-0.053l-2.736-3.745l2.736-18.291h0.053l2.736,18.291L96.79,49.088z M108.376,54.084V41.487 C110.059,44.669,110.436,48.698,108.376,54.084z"/> </g> <g> <circle cx="96.763" cy="11.78" r="11.347"/> </g> </g> <g> <path d="M71.708,63.768H16.112c-3.531,0-6.404-2.874-6.404-6.405V6.404C9.708,2.873,12.582,0,16.112,0h55.596 c3.531,0,6.404,2.873,6.404,6.404v50.958C78.111,60.894,75.239,63.768,71.708,63.768z M16.112,4.27 c-1.178,0-2.135,0.957-2.135,2.135v50.958c0,1.177,0.957,2.135,2.135,2.135h55.596c1.178,0,2.135-0.958,2.135-2.135V6.404 c0-1.178-0.957-2.135-2.135-2.135L16.112,4.27L16.112,4.27z"/> </g> <g> <circle cx="26.429" cy="79.091" r="8.983"/> </g> <g> <path d="M16.021,108.576c-0.267-2.463,0.231-4.483,1.213-6.188v6.188h9.134l-2.126-2.91l2.166-14.483h0.042l2.166,14.483 l-2.126,2.91h9.134v-6.172c0.975,1.701,1.47,3.718,1.204,6.172h7.031c0.808-10.78-8.032-16.215-11.455-18.314 c-0.151-0.092-0.31-0.158-0.468-0.226c-1.001-0.667-2.124-1.159-3.27-1.44l-2.238,2.252l-2.17-2.277 c-0.007,0.002-0.015,0.002-0.023,0.004c-1.168,0.279-2.314,0.781-3.332,1.464c-0.156,0.065-0.313,0.131-0.461,0.223 c-3.423,2.101-12.263,7.534-11.455,18.313h7.034V108.576z"/> </g> <g> <circle cx="61.403" cy="79.091" r="8.983"/> </g> <g> <path d="M50.996,108.576c-0.268-2.463,0.232-4.483,1.214-6.188v6.188h9.134l-2.126-2.91l2.166-14.483h0.042l2.167,14.483 l-2.127,2.91H70.6v-6.172c0.976,1.701,1.47,3.718,1.204,6.172h7.031c0.808-10.78-8.031-16.215-11.455-18.314 c-0.15-0.092-0.31-0.158-0.469-0.226c-1-0.667-2.123-1.159-3.27-1.44l-2.238,2.252l-2.17-2.277 c-0.006,0.002-0.014,0.002-0.022,0.004c-1.169,0.279-2.315,0.781-3.333,1.464c-0.155,0.065-0.312,0.131-0.46,0.223 c-3.424,2.101-12.263,7.534-11.455,18.313h7.032V108.576z"/> </g> <g> <rect x="5.53" y="111.373" width="102.723" height="12.803"/> </g> <g> <path d="M67.021,25.858L49.198,31.8l-9.376-7.133l-6.777,6.291L19.221,17.134v37.778h-1.828v1.519h52.053v-1.519h-2.425V25.858z M65.557,35.221l-16.341,5.448l-9.43-4.668l-7.018,4.01L20.688,26.35v-5.676l12.32,12.32l6.908-6.414l9.01,6.856l16.63-5.542 C65.556,27.894,65.556,35.221,65.557,35.221z"/> </g> </g> </g> </g>
</svg>